<?xml version="1.0" encoding="UTF-8"?><svg xmlns="http://www.w3.org/2000/svg" xmlns:xlink="http://www.w3.org/1999/xlink" height="83.1" preserveAspectRatio="xMidYMid meet" version="1.0" viewBox="-1.6 -3.0 278.4 83.1" width="278.4" zoomAndPan="magnify"><g id="change1_1"><path d="M272.9,33.29c-13.34-11.03-26.97-21.59-40.71-32.12c-5.44-4.16-10.85,3.73-6.24,8.24c5.63,5.51,11.25,11,16.91,16.45 c-13.89-1.25-28.1-0.84-41.77-0.71c-22.51,0.21-45.02,0.77-67.53,0.99c-21.98,0.22-43.96,0.44-65.94,0.82 C56.6,27.16,45.58,27.37,34.57,28c-10.46,0.59-20.41,3.12-30.76,4.19c-4.53,0.47-5.43,7.8-0.49,8.31c11.03,1.16,21.6,3.75,32.75,4.3 c10.62,0.52,21.23,0.84,31.86,1.02c22.31,0.38,44.62,0.59,66.93,0.8c21.78,0.21,43.54,0.69,65.32,0.96 c13.74,0.17,28.3,0.75,42.44-0.5c-3.47,2.41-6.93,4.82-10.4,7.23c-7.87,5.48-18.16,11.03-22.29,20.06 c-1.15,2.51,0.56,5.71,3.53,5.52c10.88-0.7,20.58-9.22,29.34-15.13c9.65-6.51,19.31-13.03,28.96-19.54 C275.58,42.65,276.8,36.52,272.9,33.29z"/></g></svg>